<mxfile host="app.diagrams.net" modified="2024-04-14T15:42:36.819Z" agent="Mozilla/5.0 (X11; Linux x86_64) AppleWebKit/537.36 (KHTML, like Gecko) Chrome/123.0.0.0 Safari/537.36" etag="OUHLTJ-R27PU4ZBS7UR4" version="24.2.5" type="github">
  <diagram id="R2lEEEUBdFMjLlhIrx00" name="Page-1">
    <mxGraphModel dx="3627" dy="1297" grid="1" gridSize="10" guides="1" tooltips="1" connect="1" arrows="1" fold="1" page="1" pageScale="1" pageWidth="850" pageHeight="1100" math="0" shadow="0" extFonts="Permanent Marker^https://fonts.googleapis.com/css?family=Permanent+Marker">
      <root>
        <mxCell id="0" />
        <mxCell id="1" parent="0" />
        <mxCell id="9EIJNcuah8gAvyVcpaho-1" value="USER" style="rounded=0;whiteSpace=wrap;html=1;" vertex="1" parent="1">
          <mxGeometry x="-590" y="240" width="80" height="30" as="geometry" />
        </mxCell>
        <mxCell id="9EIJNcuah8gAvyVcpaho-3" value="Payment" style="rounded=0;whiteSpace=wrap;html=1;" vertex="1" parent="1">
          <mxGeometry x="530" y="410" width="80" height="30" as="geometry" />
        </mxCell>
        <mxCell id="9EIJNcuah8gAvyVcpaho-4" value="Item" style="rounded=0;whiteSpace=wrap;html=1;" vertex="1" parent="1">
          <mxGeometry x="660" y="860" width="80" height="30" as="geometry" />
        </mxCell>
        <mxCell id="9EIJNcuah8gAvyVcpaho-5" value="Sales" style="rounded=0;whiteSpace=wrap;html=1;" vertex="1" parent="1">
          <mxGeometry x="560" y="140" width="80" height="30" as="geometry" />
        </mxCell>
        <mxCell id="9EIJNcuah8gAvyVcpaho-6" value="Admin" style="rounded=0;whiteSpace=wrap;html=1;" vertex="1" parent="1">
          <mxGeometry x="660" y="560" width="80" height="30" as="geometry" />
        </mxCell>
        <mxCell id="9EIJNcuah8gAvyVcpaho-7" value="Employee" style="rounded=0;whiteSpace=wrap;html=1;" vertex="1" parent="1">
          <mxGeometry x="840" y="400" width="80" height="30" as="geometry" />
        </mxCell>
        <mxCell id="9EIJNcuah8gAvyVcpaho-8" value="Permission" style="rounded=0;whiteSpace=wrap;html=1;" vertex="1" parent="1">
          <mxGeometry x="550" y="280" width="80" height="30" as="geometry" />
        </mxCell>
        <mxCell id="9EIJNcuah8gAvyVcpaho-9" value="Role" style="rounded=0;whiteSpace=wrap;html=1;" vertex="1" parent="1">
          <mxGeometry x="80" y="110" width="80" height="30" as="geometry" />
        </mxCell>
        <mxCell id="9EIJNcuah8gAvyVcpaho-10" value="Storage" style="rounded=0;whiteSpace=wrap;html=1;" vertex="1" parent="1">
          <mxGeometry x="470" y="1060" width="80" height="30" as="geometry" />
        </mxCell>
        <mxCell id="9EIJNcuah8gAvyVcpaho-11" value="Unit" style="rounded=0;whiteSpace=wrap;html=1;" vertex="1" parent="1">
          <mxGeometry x="370" y="440" width="80" height="30" as="geometry" />
        </mxCell>
        <mxCell id="9EIJNcuah8gAvyVcpaho-12" value="Cart" style="rounded=0;whiteSpace=wrap;html=1;" vertex="1" parent="1">
          <mxGeometry x="360" y="340" width="80" height="30" as="geometry" />
        </mxCell>
        <mxCell id="9EIJNcuah8gAvyVcpaho-13" value="Location" style="rounded=0;whiteSpace=wrap;html=1;" vertex="1" parent="1">
          <mxGeometry x="310" y="1080" width="80" height="30" as="geometry" />
        </mxCell>
        <mxCell id="9EIJNcuah8gAvyVcpaho-14" value="Shipment" style="rounded=0;whiteSpace=wrap;html=1;" vertex="1" parent="1">
          <mxGeometry x="-390" y="650" width="80" height="30" as="geometry" />
        </mxCell>
        <mxCell id="9EIJNcuah8gAvyVcpaho-15" value="Invoice" style="rounded=0;whiteSpace=wrap;html=1;" vertex="1" parent="1">
          <mxGeometry x="70" y="1140" width="80" height="30" as="geometry" />
        </mxCell>
        <mxCell id="9EIJNcuah8gAvyVcpaho-17" value="Branch" style="rounded=0;whiteSpace=wrap;html=1;" vertex="1" parent="1">
          <mxGeometry x="345" y="190" width="80" height="30" as="geometry" />
        </mxCell>
        <mxCell id="9EIJNcuah8gAvyVcpaho-18" value="Delivery" style="rounded=0;whiteSpace=wrap;html=1;" vertex="1" parent="1">
          <mxGeometry x="50" y="340" width="80" height="30" as="geometry" />
        </mxCell>
        <mxCell id="9EIJNcuah8gAvyVcpaho-20" value="Category" style="rounded=0;whiteSpace=wrap;html=1;" vertex="1" parent="1">
          <mxGeometry x="140" y="180" width="80" height="30" as="geometry" />
        </mxCell>
        <mxCell id="9EIJNcuah8gAvyVcpaho-21" value="Feedback" style="rounded=0;whiteSpace=wrap;html=1;" vertex="1" parent="1">
          <mxGeometry x="240" y="120" width="80" height="30" as="geometry" />
        </mxCell>
        <mxCell id="9EIJNcuah8gAvyVcpaho-22" value="Supplier" style="rounded=0;whiteSpace=wrap;html=1;" vertex="1" parent="1">
          <mxGeometry x="240" y="60" width="80" height="30" as="geometry" />
        </mxCell>
        <mxCell id="9EIJNcuah8gAvyVcpaho-31" value="&lt;u&gt;User_ID&lt;/u&gt;" style="ellipse;whiteSpace=wrap;html=1;" vertex="1" parent="1">
          <mxGeometry x="-615" y="70" width="130" height="40" as="geometry" />
        </mxCell>
        <mxCell id="9EIJNcuah8gAvyVcpaho-32" value="" style="endArrow=classic;html=1;rounded=0;fontSize=12;startSize=8;endSize=8;curved=1;exitX=0.5;exitY=0;exitDx=0;exitDy=0;entryX=0.5;entryY=1;entryDx=0;entryDy=0;" edge="1" parent="1" source="9EIJNcuah8gAvyVcpaho-1" target="9EIJNcuah8gAvyVcpaho-31">
          <mxGeometry width="50" height="50" relative="1" as="geometry">
            <mxPoint x="-570" y="230" as="sourcePoint" />
            <mxPoint x="-520" y="180" as="targetPoint" />
          </mxGeometry>
        </mxCell>
        <mxCell id="9EIJNcuah8gAvyVcpaho-33" value="Username" style="ellipse;whiteSpace=wrap;html=1;" vertex="1" parent="1">
          <mxGeometry x="-780" y="210" width="140" height="50" as="geometry" />
        </mxCell>
        <mxCell id="9EIJNcuah8gAvyVcpaho-34" value="Paasord" style="ellipse;whiteSpace=wrap;html=1;" vertex="1" parent="1">
          <mxGeometry x="-740" y="120" width="140" height="50" as="geometry" />
        </mxCell>
        <mxCell id="9EIJNcuah8gAvyVcpaho-36" value="Email" style="ellipse;whiteSpace=wrap;html=1;" vertex="1" parent="1">
          <mxGeometry x="-500" y="100" width="140" height="50" as="geometry" />
        </mxCell>
        <mxCell id="9EIJNcuah8gAvyVcpaho-37" value="Role_ID(FK)" style="ellipse;whiteSpace=wrap;html=1;" vertex="1" parent="1">
          <mxGeometry x="-440" y="200" width="140" height="50" as="geometry" />
        </mxCell>
        <mxCell id="9EIJNcuah8gAvyVcpaho-38" value="" style="endArrow=classic;html=1;rounded=0;fontSize=12;startSize=8;endSize=8;curved=1;exitX=0;exitY=1;exitDx=0;exitDy=0;entryX=1;entryY=0.5;entryDx=0;entryDy=0;" edge="1" parent="1" source="9EIJNcuah8gAvyVcpaho-1" target="9EIJNcuah8gAvyVcpaho-33">
          <mxGeometry width="50" height="50" relative="1" as="geometry">
            <mxPoint x="-540" y="250" as="sourcePoint" />
            <mxPoint x="-540" y="120" as="targetPoint" />
          </mxGeometry>
        </mxCell>
        <mxCell id="9EIJNcuah8gAvyVcpaho-39" value="" style="endArrow=classic;html=1;rounded=0;fontSize=12;startSize=8;endSize=8;curved=1;exitX=0.25;exitY=0;exitDx=0;exitDy=0;entryX=0.5;entryY=1;entryDx=0;entryDy=0;" edge="1" parent="1" source="9EIJNcuah8gAvyVcpaho-1" target="9EIJNcuah8gAvyVcpaho-34">
          <mxGeometry width="50" height="50" relative="1" as="geometry">
            <mxPoint x="-530" y="260" as="sourcePoint" />
            <mxPoint x="-530" y="130" as="targetPoint" />
          </mxGeometry>
        </mxCell>
        <mxCell id="9EIJNcuah8gAvyVcpaho-40" value="" style="endArrow=classic;html=1;rounded=0;fontSize=12;startSize=8;endSize=8;curved=1;exitX=1;exitY=0.5;exitDx=0;exitDy=0;entryX=0;entryY=0.5;entryDx=0;entryDy=0;" edge="1" parent="1" source="9EIJNcuah8gAvyVcpaho-1" target="9EIJNcuah8gAvyVcpaho-37">
          <mxGeometry width="50" height="50" relative="1" as="geometry">
            <mxPoint x="-520" y="270" as="sourcePoint" />
            <mxPoint x="-520" y="140" as="targetPoint" />
          </mxGeometry>
        </mxCell>
        <mxCell id="9EIJNcuah8gAvyVcpaho-41" value="" style="endArrow=classic;html=1;rounded=0;fontSize=12;startSize=8;endSize=8;curved=1;exitX=0.75;exitY=0;exitDx=0;exitDy=0;entryX=0.5;entryY=1;entryDx=0;entryDy=0;" edge="1" parent="1" source="9EIJNcuah8gAvyVcpaho-1" target="9EIJNcuah8gAvyVcpaho-36">
          <mxGeometry width="50" height="50" relative="1" as="geometry">
            <mxPoint x="-510" y="280" as="sourcePoint" />
            <mxPoint x="-510" y="150" as="targetPoint" />
          </mxGeometry>
        </mxCell>
      </root>
    </mxGraphModel>
  </diagram>
</mxfile>
